<svg width="20" height="20" viewBox="0 0 20 20" fill="none" xmlns="http://www.w3.org/2000/svg">
<path d="M10.6917 11.2083C10.6155 11.0949 10.5125 11.002 10.3919 10.9377C10.2713 10.8734 10.1367 10.8398 10 10.8398C9.86335 10.8398 9.72878 10.8734 9.60816 10.9377C9.48754 11.002 9.38458 11.0949 9.30835 11.2083L5.97502 16.2083C5.90188 16.335 5.86338 16.4787 5.86338 16.625C5.86338 16.7713 5.90188 16.915 5.97502 17.0417C6.04023 17.1718 6.1384 17.2826 6.25975 17.363C6.38111 17.4435 6.52141 17.4907 6.66669 17.5H13.3334C13.4841 17.4996 13.6319 17.4583 13.7611 17.3805C13.8902 17.3028 13.9958 17.1914 14.0667 17.0583C14.1336 16.928 14.165 16.7824 14.1577 16.6361C14.1503 16.4898 14.1046 16.348 14.025 16.225L10.6917 11.2083ZM8.22502 15.8333L10 13.1667L11.775 15.8333H8.22502ZM15.8334 2.5H4.16669C3.50365 2.5 2.86776 2.76339 2.39892 3.23223C1.93008 3.70107 1.66669 4.33696 1.66669 5V12.5C1.66669 13.163 1.93008 13.7989 2.39892 14.2678C2.86776 14.7366 3.50365 15 4.16669 15H4.87502C5.09603 15 5.308 14.9122 5.46428 14.7559C5.62056 14.5996 5.70835 14.3877 5.70835 14.1667C5.70835 13.9457 5.62056 13.7337 5.46428 13.5774C5.308 13.4211 5.09603 13.3333 4.87502 13.3333H4.16669C3.94567 13.3333 3.73371 13.2455 3.57743 13.0893C3.42115 12.933 3.33335 12.721 3.33335 12.5V5C3.33335 4.77899 3.42115 4.56702 3.57743 4.41074C3.73371 4.25446 3.94567 4.16667 4.16669 4.16667H15.8334C16.0544 4.16667 16.2663 4.25446 16.4226 4.41074C16.5789 4.56702 16.6667 4.77899 16.6667 5V12.5C16.6667 12.721 16.5789 12.933 16.4226 13.0893C16.2663 13.2455 16.0544 13.3333 15.8334 13.3333H15.125C14.904 13.3333 14.692 13.4211 14.5358 13.5774C14.3795 13.7337 14.2917 13.9457 14.2917 14.1667C14.2917 14.3877 14.3795 14.5996 14.5358 14.7559C14.692 14.9122 14.904 15 15.125 15H15.8334C16.4964 15 17.1323 14.7366 17.6011 14.2678C18.07 13.7989 18.3334 13.163 18.3334 12.5V5C18.3334 4.33696 18.07 3.70107 17.6011 3.23223C17.1323 2.76339 16.4964 2.5 15.8334 2.5Z" fill="#20293A"/>
</svg>
