<svg width="20" height="20" viewBox="0 0 20 20" fill="none" xmlns="http://www.w3.org/2000/svg">
<path d="M7.37858 17.9757C9.07926 18.5449 10.919 18.5451 12.6198 17.9762C12.4038 18.0456 12.1724 17.9267 12.103 17.7107C12.0894 17.6684 12.0828 17.6242 12.0833 17.5798C12.0833 17.2986 12.0937 16.4027 12.0937 15.2881C12.1389 14.7169 11.9337 14.1543 11.5312 13.7465C13.3854 13.5381 15.3333 12.8298 15.3333 9.63187C15.347 8.80332 15.0411 8.00131 14.4792 7.39228C14.7339 6.67247 14.7041 5.88252 14.3958 5.18395C14.3958 5.18395 13.6979 4.95478 12.1042 6.03812C10.7406 5.66308 9.30107 5.66308 7.9375 6.03812C6.34372 4.96522 5.64583 5.18395 5.64583 5.18395C5.33751 5.88252 5.30771 6.67247 5.5625 7.39228C5.00222 8.00234 4.69661 8.80365 4.70833 9.63187C4.70833 12.8194 6.64583 13.5381 8.5 13.7465C8.19359 14.0413 8.00478 14.4374 7.96873 14.8611C7.11055 15.342 6.025 15.0361 5.54409 14.1779C5.54328 14.1765 5.54246 14.175 5.54166 14.1736C5.27946 13.6969 4.80123 13.3781 4.26038 13.3194C3.56249 13.3298 3.97916 13.7152 4.27081 13.8715C4.64685 14.1887 4.94001 14.5927 5.12499 15.0486C5.29166 15.5173 5.83332 16.4132 7.92706 16.0277C7.92706 16.7257 7.93749 17.3819 7.93749 17.5798C7.93749 17.7957 7.78299 18.0392 7.37858 17.9757Z" fill="white" fill-opacity="0.2"/>
<path d="M10 1.73584C5.39766 1.73584 1.66669 5.46681 1.66669 10.0692C1.66669 13.755 4.06226 16.8764 7.37932 17.9757C7.78317 18.0387 7.93754 17.7955 7.93754 17.5798C7.93754 17.3819 7.92711 16.7257 7.92711 16.0277C5.83335 16.4132 5.29167 15.5173 5.12504 15.0486C4.94005 14.5927 4.64688 14.1887 4.27085 13.8715C3.9792 13.7153 3.56254 13.3298 4.26043 13.3194C4.80125 13.3781 5.27951 13.6969 5.54171 14.1736C5.54253 14.175 5.54334 14.1765 5.54415 14.1779C6.02506 15.0361 7.11057 15.3419 7.96878 14.861C8.00484 14.4374 8.19365 14.0413 8.50004 13.7465C6.64589 13.5381 4.70838 12.8194 4.70838 9.6319C4.69663 8.80365 5.00226 8.00237 5.56251 7.39232C5.30774 6.67247 5.33755 5.88251 5.64587 5.18396C5.64587 5.18396 6.34375 4.96521 7.93754 6.03815C9.30111 5.66309 10.7406 5.66309 12.1042 6.03815C13.6979 4.95477 14.3959 5.18396 14.3959 5.18396C14.7041 5.88251 14.734 6.67246 14.4792 7.39232C15.0411 8.00134 15.347 8.8033 15.3334 9.6319C15.3334 12.8298 13.3854 13.5381 11.5313 13.7465C11.9337 14.1543 12.139 14.7169 12.0938 15.2881C12.0938 16.4027 12.0834 17.2986 12.0834 17.5798C12.0828 17.6242 12.0894 17.6684 12.103 17.7107C12.1723 17.9264 12.4031 18.045 12.6188 17.9763C15.9369 16.8776 18.3334 13.7557 18.3334 10.0692C18.3334 5.46681 14.6024 1.73584 10 1.73584Z" fill="white"/>
</svg>
