<svg width="20" height="20" viewBox="0 0 20 20" fill="none" xmlns="http://www.w3.org/2000/svg">
<path d="M3.33331 9.99996C3.33331 10.221 3.42111 10.4329 3.57739 10.5892C3.73367 10.7455 3.94563 10.8333 4.16665 10.8333H10.4916L8.57498 12.7416C8.49687 12.8191 8.43488 12.9113 8.39257 13.0128C8.35026 13.1144 8.32848 13.2233 8.32848 13.3333C8.32848 13.4433 8.35026 13.5522 8.39257 13.6538C8.43488 13.7553 8.49687 13.8475 8.57498 13.925C8.65245 14.0031 8.74462 14.0651 8.84617 14.1074C8.94771 14.1497 9.05664 14.1715 9.16665 14.1715C9.27666 14.1715 9.38558 14.1497 9.48713 14.1074C9.58868 14.0651 9.68084 14.0031 9.75831 13.925L13.0916 10.5916C13.1675 10.5124 13.227 10.4189 13.2666 10.3166C13.35 10.1137 13.35 9.88618 13.2666 9.68329C13.227 9.581 13.1675 9.48755 13.0916 9.40829L9.75831 6.07496C9.68061 5.99726 9.58837 5.93563 9.48685 5.89358C9.38534 5.85153 9.27653 5.82988 9.16665 5.82988C9.05676 5.82988 8.94796 5.85153 8.84644 5.89358C8.74492 5.93563 8.65268 5.99726 8.57498 6.07496C8.49728 6.15266 8.43565 6.2449 8.3936 6.34642C8.35155 6.44794 8.3299 6.55674 8.3299 6.66663C8.3299 6.77651 8.35155 6.88532 8.3936 6.98683C8.43565 7.08835 8.49728 7.18059 8.57498 7.25829L10.4916 9.16663H4.16665C3.94563 9.16663 3.73367 9.25442 3.57739 9.4107C3.42111 9.56698 3.33331 9.77895 3.33331 9.99996ZM14.1666 1.66663H5.83331C5.17027 1.66663 4.53439 1.93002 4.06555 2.39886C3.59671 2.8677 3.33331 3.50358 3.33331 4.16663V6.66663C3.33331 6.88764 3.42111 7.0996 3.57739 7.25588C3.73367 7.41216 3.94563 7.49996 4.16665 7.49996C4.38766 7.49996 4.59962 7.41216 4.7559 7.25588C4.91218 7.0996 4.99998 6.88764 4.99998 6.66663V4.16663C4.99998 3.94561 5.08778 3.73365 5.24406 3.57737C5.40034 3.42109 5.6123 3.33329 5.83331 3.33329H14.1666C14.3877 3.33329 14.5996 3.42109 14.7559 3.57737C14.9122 3.73365 15 3.94561 15 4.16663V15.8333C15 16.0543 14.9122 16.2663 14.7559 16.4225C14.5996 16.5788 14.3877 16.6666 14.1666 16.6666H5.83331C5.6123 16.6666 5.40034 16.5788 5.24406 16.4225C5.08778 16.2663 4.99998 16.0543 4.99998 15.8333V13.3333C4.99998 13.1123 4.91218 12.9003 4.7559 12.744C4.59962 12.5878 4.38766 12.5 4.16665 12.5C3.94563 12.5 3.73367 12.5878 3.57739 12.744C3.42111 12.9003 3.33331 13.1123 3.33331 13.3333V15.8333C3.33331 16.4963 3.59671 17.1322 4.06555 17.6011C4.53439 18.0699 5.17027 18.3333 5.83331 18.3333H14.1666C14.8297 18.3333 15.4656 18.0699 15.9344 17.6011C16.4033 17.1322 16.6666 16.4963 16.6666 15.8333V4.16663C16.6666 3.50358 16.4033 2.8677 15.9344 2.39886C15.4656 1.93002 14.8297 1.66663 14.1666 1.66663Z" fill="#DD524C"/>
</svg>
