<svg width="20" height="20" viewBox="0 0 20 20" fill="none" xmlns="http://www.w3.org/2000/svg">
<path d="M15 12.5V4.16663C15 3.50358 14.7366 2.8677 14.2678 2.39886C13.7989 1.93002 13.1631 1.66663 12.5 1.66663H4.16669C3.50365 1.66663 2.86776 1.93002 2.39892 2.39886C1.93008 2.8677 1.66669 3.50358 1.66669 4.16663V12.5C1.66669 13.163 1.93008 13.7989 2.39892 14.2677C2.86776 14.7366 3.50365 15 4.16669 15H12.5C13.1631 15 13.7989 14.7366 14.2678 14.2677C14.7366 13.7989 15 13.163 15 12.5ZM3.33335 4.16663C3.33335 3.94561 3.42115 3.73365 3.57743 3.57737C3.73371 3.42109 3.94567 3.33329 4.16669 3.33329H12.5C12.721 3.33329 12.933 3.42109 13.0893 3.57737C13.2456 3.73365 13.3334 3.94561 13.3334 4.16663V7.79996L12.4334 6.89163C12.0333 6.49153 11.4908 6.26671 10.925 6.26663C10.3596 6.26853 9.81773 6.49307 9.41669 6.89163L8.65835 7.64996L7.98335 6.97496C7.52664 6.52557 6.91158 6.27372 6.27085 6.27372C5.63012 6.27372 5.01507 6.52557 4.55835 6.97496L3.33335 8.20829V4.16663ZM3.43335 12.875C3.36909 12.7603 3.3347 12.6314 3.33335 12.5V10.5583L5.73335 8.15829C5.80382 8.08749 5.88758 8.03131 5.97982 7.99297C6.07206 7.95464 6.17096 7.9349 6.27085 7.9349C6.37074 7.9349 6.46965 7.95464 6.56189 7.99297C6.65413 8.03131 6.73789 8.08749 6.80835 8.15829L7.50002 8.83329L3.43335 12.875ZM10.6 8.07496C10.6411 8.02977 10.6914 7.99378 10.7474 7.96937C10.8034 7.94495 10.8639 7.93266 10.925 7.93329C10.9861 7.93266 11.0467 7.94495 11.1027 7.96937C11.1587 7.99378 11.2089 8.02977 11.25 8.07496L13.3334 10.15V12.5C13.3334 12.721 13.2456 12.9329 13.0893 13.0892C12.933 13.2455 12.721 13.3333 12.5 13.3333H5.33335L10.6 8.07496ZM17.5 4.99996C17.279 4.99996 17.067 5.08776 16.9108 5.24404C16.7545 5.40032 16.6667 5.61228 16.6667 5.83329V14.1666C16.6667 14.8297 16.4033 15.4656 15.9345 15.9344C15.4656 16.4032 14.8297 16.6666 14.1667 16.6666H5.83335C5.61234 16.6666 5.40038 16.7544 5.2441 16.9107C5.08782 17.067 5.00002 17.2789 5.00002 17.5C5.00002 17.721 5.08782 17.9329 5.2441 18.0892C5.40038 18.2455 5.61234 18.3333 5.83335 18.3333H14.1667C15.2718 18.3333 16.3316 17.8943 17.113 17.1129C17.8944 16.3315 18.3334 15.2717 18.3334 14.1666V5.83329C18.3334 5.61228 18.2456 5.40032 18.0893 5.24404C17.933 5.08776 17.721 4.99996 17.5 4.99996Z" fill="#20293A"/>
</svg>
