<svg width="16" height="16" viewBox="0 0 16 16" fill="none" xmlns="http://www.w3.org/2000/svg">
<path d="M14.6667 4.82672C14.6672 4.73898 14.6503 4.65201 14.6172 4.57078C14.584 4.48956 14.5351 4.41568 14.4733 4.35339L11.6467 1.52672C11.5844 1.46493 11.5105 1.41605 11.4293 1.38287C11.348 1.34969 11.2611 1.33288 11.1733 1.33339C11.0856 1.33288 10.9986 1.34969 10.9174 1.38287C10.8362 1.41605 10.7623 1.46493 10.7 1.52672L8.81332 3.41338L1.52666 10.7001C1.46487 10.7623 1.41599 10.8362 1.38281 10.9174C1.34963 10.9987 1.33282 11.0856 1.33332 11.1734V14.0001C1.33332 14.1769 1.40356 14.3464 1.52859 14.4715C1.65361 14.5965 1.82318 14.6667 1.99999 14.6667H4.82666C4.91994 14.6718 5.01325 14.6572 5.10054 14.6239C5.18782 14.5906 5.26713 14.5393 5.33332 14.4734L12.58 7.18672L14.4733 5.33338C14.5342 5.26877 14.5838 5.19441 14.62 5.11338C14.6264 5.06025 14.6264 5.00652 14.62 4.95338C14.6231 4.92235 14.6231 4.89108 14.62 4.86005L14.6667 4.82672ZM4.55332 13.3334H2.66666V11.4467L9.28666 4.82672L11.1733 6.71339L4.55332 13.3334ZM12.1133 5.77338L10.2267 3.88672L11.1733 2.94672L13.0533 4.82672L12.1133 5.77338Z" fill="#20293A"/>
</svg>
