<svg width="16" height="16" viewBox="0 0 16 16" fill="none" xmlns="http://www.w3.org/2000/svg">
<path d="M12.6667 7.33329H8.66669V3.33329C8.66669 3.15648 8.59645 2.98691 8.47142 2.86189C8.3464 2.73686 8.17683 2.66663 8.00002 2.66663C7.82321 2.66663 7.65364 2.73686 7.52862 2.86189C7.40359 2.98691 7.33335 3.15648 7.33335 3.33329V7.33329H3.33335C3.15654 7.33329 2.98697 7.40353 2.86195 7.52855C2.73693 7.65358 2.66669 7.82315 2.66669 7.99996C2.66669 8.17677 2.73693 8.34634 2.86195 8.47136C2.98697 8.59639 3.15654 8.66663 3.33335 8.66663H7.33335V12.6666C7.33335 12.8434 7.40359 13.013 7.52862 13.138C7.65364 13.2631 7.82321 13.3333 8.00002 13.3333C8.17683 13.3333 8.3464 13.2631 8.47142 13.138C8.59645 13.013 8.66669 12.8434 8.66669 12.6666V8.66663H12.6667C12.8435 8.66663 13.0131 8.59639 13.1381 8.47136C13.2631 8.34634 13.3334 8.17677 13.3334 7.99996C13.3334 7.82315 13.2631 7.65358 13.1381 7.52855C13.0131 7.40353 12.8435 7.33329 12.6667 7.33329Z" fill="white"/>
</svg>
