<svg width="20" height="20" viewBox="0 0 20 20" fill="none" xmlns="http://www.w3.org/2000/svg">
<path d="M10 1.66663C8.38373 1.6697 6.80324 2.14272 5.45102 3.02807C4.09881 3.91343 3.03325 5.17291 2.38412 6.6531C1.73499 8.13329 1.53031 9.77031 1.79502 11.3648C2.05973 12.9592 2.7824 14.4423 3.875 15.6333C4.65535 16.4792 5.60245 17.1542 6.65661 17.616C7.71078 18.0777 8.84915 18.3161 10 18.3161C11.1508 18.3161 12.2892 18.0777 13.3434 17.616C14.3975 17.1542 15.3446 16.4792 16.125 15.6333C17.2176 14.4423 17.9403 12.9592 18.205 11.3648C18.4697 9.77031 18.265 8.13329 17.6159 6.6531C16.9668 5.17291 15.9012 3.91343 14.549 3.02807C13.1968 2.14272 11.6163 1.6697 10 1.66663ZM10 16.6666C8.27372 16.664 6.61576 15.9919 5.375 14.7916C5.7517 13.8746 6.39253 13.0902 7.21604 12.5382C8.03956 11.9862 9.00859 11.6915 10 11.6915C10.9914 11.6915 11.9604 11.9862 12.784 12.5382C13.6075 13.0902 14.2483 13.8746 14.625 14.7916C13.3842 15.9919 11.7263 16.664 10 16.6666ZM8.33333 8.33329C8.33333 8.00366 8.43108 7.68142 8.61422 7.40734C8.79735 7.13326 9.05765 6.91964 9.36219 6.79349C9.66674 6.66735 10.0018 6.63434 10.3252 6.69865C10.6485 6.76296 10.9454 6.92169 11.1785 7.15478C11.4116 7.38787 11.5703 7.68484 11.6346 8.00814C11.699 8.33144 11.6659 8.66655 11.5398 8.9711C11.4137 9.27564 11.2 9.53594 10.926 9.71908C10.6519 9.90221 10.3296 9.99996 10 9.99996C9.55797 9.99996 9.13405 9.82436 8.82149 9.5118C8.50893 9.19924 8.33333 8.77532 8.33333 8.33329ZM15.7583 13.3333C15.0138 12.0598 13.8678 11.0691 12.5 10.5166C12.9243 10.0355 13.2008 9.44217 13.2962 8.80782C13.3917 8.17347 13.3021 7.52505 13.0381 6.94037C12.7742 6.35569 12.3472 5.85959 11.8083 5.5116C11.2694 5.1636 10.6415 4.9785 10 4.9785C9.35851 4.9785 8.73064 5.1636 8.19174 5.5116C7.65285 5.85959 7.22581 6.35569 6.96187 6.94037C6.69794 7.52505 6.60832 8.17347 6.70377 8.80782C6.79923 9.44217 7.07569 10.0355 7.5 10.5166C6.13217 11.0691 4.98622 12.0598 4.24167 13.3333C3.64829 12.3225 3.33477 11.172 3.33333 9.99996C3.33333 8.23185 4.03571 6.53616 5.28596 5.28591C6.5362 4.03567 8.23189 3.33329 10 3.33329C11.7681 3.33329 13.4638 4.03567 14.714 5.28591C15.9643 6.53616 16.6667 8.23185 16.6667 9.99996C16.6652 11.172 16.3517 12.3225 15.7583 13.3333Z" fill="#20293A"/>
</svg>
