<svg width="20" height="20" viewBox="0 0 20 20" fill="none" xmlns="http://www.w3.org/2000/svg">
<path d="M15.35 6.84995C14.8408 5.67996 13.962 4.70918 12.8484 4.08639C11.7347 3.4636 10.4475 3.22315 9.18411 3.40188C7.9207 3.58061 6.75074 4.16866 5.85352 5.07593C4.95629 5.9832 4.38129 7.15963 4.21664 8.42495C3.42212 8.61522 2.72515 9.09065 2.25808 9.76094C1.79101 10.4312 1.58637 11.2497 1.68302 12.061C1.77967 12.8722 2.17088 13.6197 2.78236 14.1615C3.39384 14.7033 4.18299 15.0017 4.99997 15C5.22098 15 5.43294 14.9122 5.58923 14.7559C5.74551 14.5996 5.8333 14.3876 5.8333 14.1666C5.8333 13.9456 5.74551 13.7336 5.58923 13.5774C5.43294 13.4211 5.22098 13.3333 4.99997 13.3333C4.55794 13.3333 4.13402 13.1577 3.82146 12.8451C3.5089 12.5326 3.3333 12.1086 3.3333 11.6666C3.3333 11.2246 3.5089 10.8007 3.82146 10.4881C4.13402 10.1755 4.55794 9.99995 4.99997 9.99995C5.22098 9.99995 5.43294 9.91216 5.58923 9.75588C5.74551 9.5996 5.8333 9.38763 5.8333 9.16662C5.83543 8.18102 6.18687 7.22808 6.82519 6.47711C7.46351 5.72613 8.34738 5.22575 9.31976 5.06485C10.2921 4.90395 11.2901 5.09296 12.1363 5.59829C12.9825 6.10363 13.6221 6.89257 13.9416 7.82495C13.9893 7.96815 14.0749 8.09573 14.1894 8.19406C14.3039 8.2924 14.4429 8.3578 14.5916 8.38329C15.1467 8.48818 15.6499 8.77796 16.0192 9.2054C16.3885 9.63284 16.6021 10.1728 16.6253 10.7372C16.6485 11.3016 16.4799 11.8572 16.1469 12.3135C15.8139 12.7698 15.3362 13.0999 14.7916 13.25C14.5773 13.3052 14.3936 13.4434 14.2811 13.634C14.1686 13.8247 14.1364 14.0522 14.1916 14.2666C14.2469 14.481 14.385 14.6647 14.5757 14.7772C14.7664 14.8897 14.9939 14.9219 15.2083 14.8666C16.0853 14.6349 16.8627 14.1233 17.4225 13.4095C17.9822 12.6957 18.2938 11.8188 18.3098 10.9118C18.3259 10.0049 18.0455 9.11749 17.5113 8.38439C16.9771 7.65128 16.2182 7.11254 15.35 6.84995ZM10.5916 8.57495C10.5124 8.49909 10.4189 8.43962 10.3166 8.39995C10.1138 8.3166 9.88619 8.3166 9.6833 8.39995C9.58101 8.43962 9.48756 8.49909 9.4083 8.57495L6.9083 11.075C6.75138 11.2319 6.66323 11.4447 6.66323 11.6666C6.66323 11.8885 6.75138 12.1014 6.9083 12.2583C7.06522 12.4152 7.27805 12.5034 7.49997 12.5034C7.72189 12.5034 7.93472 12.4152 8.09164 12.2583L9.16664 11.175V15.8333C9.16664 16.0543 9.25443 16.2663 9.41071 16.4225C9.56699 16.5788 9.77896 16.6666 9.99997 16.6666C10.221 16.6666 10.4329 16.5788 10.5892 16.4225C10.7455 16.2663 10.8333 16.0543 10.8333 15.8333V11.175L11.9083 12.2583C11.9858 12.3364 12.0779 12.3984 12.1795 12.4407C12.281 12.483 12.39 12.5048 12.5 12.5048C12.61 12.5048 12.7189 12.483 12.8204 12.4407C12.922 12.3984 13.0142 12.3364 13.0916 12.2583C13.1697 12.1808 13.2317 12.0886 13.274 11.9871C13.3164 11.8856 13.3381 11.7766 13.3381 11.6666C13.3381 11.5566 13.3164 11.4477 13.274 11.3461C13.2317 11.2446 13.1697 11.1524 13.0916 11.075L10.5916 8.57495Z" fill="#20293A"/>
</svg>
